Coordinates
version=1
nRows=18
nColumns=63
inDegrees=yes

Units are S.I. units (second, meters, Newtons, ...)
If the header above contains a line with 'inDegrees', this indicates whether rotational values are in degrees (yes) or radians (no).

endheader
time	pelvis_tilt	pelvis_list	pelvis_rotation	pelvis_tx	pelvis_ty	pelvis_tz	hip_flexion_r	hip_adduction_r	hip_rotation_r	knee_angle_r	knee_angle_r_beta	ankle_angle_r	subtalar_angle_r	mtp_angle_r	hip_flexion_l	hip_adduction_l	hip_rotation_l	knee_angle_l	knee_angle_l_beta	ankle_angle_l	subtalar_angle_l	mtp_angle_l	L5_S1_Flex_Ext	L5_S1_Lat_Bending	L5_S1_axial_rotation	L4_L5_Flex_Ext	L4_L5_Lat_Bending	L4_L5_axial_rotation	L3_L4_Flex_Ext	L3_L4_Lat_Bending	L3_L4_axial_rotation	L2_L3_Flex_Ext	L2_L3_Lat_Bending	L2_L3_axial_rotation	L1_L2_Flex_Ext	L1_L2_Lat_Bending	L1_L2_axial_rotation	L1_T12_Flex_Ext	L1_T12_Lat_Bending	L1_T12_axial_rotation	Abs_r3	Abs_r2	Abs_r1	Abs_t1	Abs_t2	neck_flexion	neck_bending	neck_rotation	arm_flex_r	arm_add_r	arm_rot_r	elbow_flex_r	pro_sup_r	wrist_flex_r	wrist_dev_r	arm_flex_l	arm_add_l	arm_rot_l	elbow_flex_l	pro_sup_l	wrist_flex_l	wrist_dev_l
1.960000	13.378413	-0.139556	97.601903	0.408391	0.691452	0.765810	9.966118	7.513594	-11.320160	3.791311	0.066171	8.295980	-17.174268	0.000000	9.364663	-7.496192	3.024879	1.108091	0.019340	25.364142	13.486971	0.000000	0.256240	1.132768	-1.917740	0.475863	1.506581	-2.037599	0.420976	2.754211	-2.037599	0.292856	2.754211	-1.678023	0.237944	2.309940	-1.558164	0.146415	1.754657	-1.438305	1.830295	12.814095	-10.665897	0.000000	0.000000	28.065024	-7.961286	-4.588569	14.684415	-22.085460	53.072615	32.724093	81.342515	-17.218784	-4.312334	19.117012	-13.572882	43.027185	28.106865	86.102021	-16.948368	3.264152
1.980000	13.172171	-0.377144	97.200101	0.408086	0.691401	0.766642	10.140773	7.251080	-10.348898	3.641653	0.063559	8.543897	-16.958793	0.000000	9.586867	-7.232025	2.403887	1.195355	0.020863	25.362002	13.767910	0.000000	0.282374	1.121980	-1.937765	0.524398	1.492233	-2.058875	0.463913	2.727982	-2.058875	0.322726	2.727982	-1.695544	0.262213	2.287942	-1.574434	0.161349	1.737947	-1.453324	2.016972	12.692062	-10.777268	0.000000	0.000000	28.137678	-7.538768	-4.107788	16.031604	-21.528324	54.015427	33.452765	83.090736	-17.731181	-4.893746	19.540387	-13.182647	44.938174	29.435851	86.917630	-16.215150	2.104219
2.000000	12.938154	-0.569859	96.823486	0.407789	0.691349	0.767122	10.189334	6.977840	-9.261589	3.399109	0.059326	8.867153	-16.713091	0.000000	9.736813	-6.950058	1.781828	1.261866	0.022024	25.484823	14.053484	0.000000	0.306489	1.107900	-1.955769	0.569181	1.473507	-2.078004	0.503531	2.693749	-2.078004	0.350287	2.693749	-1.711298	0.284606	2.259230	-1.589062	0.175128	1.716138	-1.466827	2.189222	12.532790	-10.877399	0.000000	0.000000	28.176215	-7.105243	-3.595704	17.325251	-20.832558	55.183418	34.067499	83.900111	-17.660225	-5.189309	19.873902	-12.691892	46.906320	30.740271	86.628305	-15.228792	0.946675
2.020000	12.681616	-0.705841	96.493296	0.407561	0.691289	0.767257	10.104369	6.702853	-8.076772	3.069517	0.053573	9.237710	-16.499008	0.000000	9.808153	-6.659821	1.121514	1.310660	0.022875	25.736359	14.409896	0.000000	0.327768	1.089031	-1.975883	0.608698	1.448412	-2.099375	0.538490	2.647871	-2.099375	0.374606	2.647871	-1.728897	0.304365	2.220752	-1.605405	0.187287	1.686909	-1.481912	2.341214	12.319339	-10.989267	0.000000	0.000000	28.194944	-6.642317	-3.121271	18.572573	-19.968357	56.797158	34.583659	83.223603	-16.976606	-5.313568	20.068997	-12.120289	48.666853	32.018965	85.213058	-14.001254	-0.071379
2.040000	12.403019	-0.758192	96.238269	0.407434	0.691271	0.767093	9.866450	6.426670	-6.877002	2.665892	0.046529	9.666286	-16.253547	0.000000	9.776185	-6.363400	0.547849	1.335571	0.023310	26.044252	14.697894	0.000000	0.342216	1.063063	-2.001806	0.635529	1.413873	-2.126918	0.562227	2.584731	-2.126918	0.391119	2.584731	-1.751580	0.317782	2.167797	-1.626467	0.195542	1.646684	-1.501354	2.444415	12.025578	-11.133442	0.000000	0.000000	28.200415	-6.133666	-2.785639	19.862695	-18.987944	59.514852	34.969757	80.351946	-15.820173	-5.452291	20.155926	-11.511711	50.386935	33.220995	82.464072	-12.585109	-0.855556
2.060000	12.139651	-0.773057	96.069862	0.407453	0.691243	0.766584	9.539840	6.181480	-5.751736	2.211903	0.038605	10.131521	-15.977569	0.000000	9.694856	-6.094386	0.253046	1.339316	0.023375	26.416797	14.729373	0.000000	0.359262	1.034451	-2.035267	0.667186	1.375819	-2.162471	0.590232	2.515163	-2.162471	0.410601	2.515163	-1.780858	0.333611	2.109452	-1.653654	0.205283	1.602364	-1.526450	2.566176	11.701912	-11.319542	0.000000	0.000000	28.212747	-5.544971	-2.454804	21.047854	-17.927380	62.781616	35.347689	75.797924	-14.237118	-5.484750	20.053873	-10.864228	51.897170	34.391796	78.164312	-11.079898	-1.365909
2.080000	11.874644	-0.761596	95.961149	0.407698	0.691231	0.765781	9.153400	5.946806	-4.709476	1.740309	0.030374	10.644096	-15.664158	0.000000	9.571831	-5.838057	0.033878	1.323451	0.023099	26.816093	14.709762	0.000000	0.378657	1.000107	-2.066482	0.703204	1.330142	-2.195637	0.622096	2.431659	-2.195637	0.432767	2.431659	-1.808171	0.351621	2.039418	-1.679016	0.216365	1.549165	-1.549861	2.704710	11.313407	-11.493151	0.000000	0.000000	28.232146	-4.885392	-2.209703	22.086890	-16.815399	66.438143	35.667917	70.383030	-12.260962	-5.548732	19.735683	-10.196017	53.077385	35.516732	72.828492	-9.431456	-1.378436
2.100000	11.601575	-0.750439	95.887072	0.408213	0.691215	0.764729	8.752163	5.710751	-3.766067	1.284219	0.022414	11.236696	-15.257708	0.000000	9.434925	-5.586805	-0.187975	1.292305	0.022555	27.244413	14.726005	0.000000	0.402303	0.959256	-2.082349	0.747116	1.275810	-2.212496	0.660943	2.332334	-2.212496	0.459792	2.332334	-1.822056	0.373578	1.956114	-1.691909	0.229876	1.485887	-1.561762	2.873607	10.851291	-11.581403	0.000000	0.000000	28.256144	-4.219806	-2.117205	22.892121	-15.687643	70.230822	35.914182	64.551701	-9.941430	-5.661798	19.179467	-9.484574	53.655683	36.562432	67.459248	-7.507459	-0.777332
2.120000	11.330546	-0.767708	95.845247	0.408984	0.691164	0.763509	8.389079	5.475522	-3.060175	0.874510	0.015263	11.935337	-14.614499	0.000000	9.324764	-5.345777	-0.352753	1.246915	0.021763	27.695708	14.729681	0.000000	0.432678	0.914254	-2.079435	0.803527	1.215957	-2.209399	0.710847	2.222916	-2.209399	0.494508	2.222916	-1.819505	0.401785	1.864346	-1.689541	0.247232	1.416179	-1.559576	3.090579	10.342220	-11.565192	0.000000	0.000000	28.280413	-3.599956	-2.149109	23.460975	-14.585082	74.261551	36.051500	58.098061	-7.332648	-5.802689	18.436429	-8.773447	54.013377	37.440953	62.703333	-5.371964	0.197262
2.140000	11.044844	-0.793804	95.828347	0.409978	0.691098	0.762268	8.064816	5.220977	-2.589709	0.542803	0.009474	12.743383	-13.735297	0.000000	9.232190	-5.096666	-0.405854	1.194005	0.020839	28.167998	14.690125	0.000000	0.463144	0.864040	-2.046040	0.860105	1.149173	-2.173918	0.760899	2.100826	-2.173918	0.529327	2.100826	-1.790285	0.430076	1.761950	-1.662408	0.264640	1.338397	-1.534530	3.308191	9.774189	-11.379461	0.000000	0.000000	28.301977	-3.089887	-2.372239	23.762113	-13.534196	78.416646	36.032160	51.271375	-4.571477	-6.019917	17.649433	-8.074112	54.565498	38.056577	58.972456	-3.242806	1.286833
2.160000	10.761195	-0.858484	95.816241	0.411162	0.690960	0.761058	7.824643	4.961489	-2.303613	0.302774	0.005284	13.613297	-12.706829	0.000000	9.195369	-4.854738	-0.437338	1.137644	0.019856	28.665846	14.717375	0.000000	0.497425	0.812140	-1.980640	0.923768	1.080146	-2.104430	0.817220	1.974637	-2.104430	0.568507	1.974637	-1.733060	0.461909	1.656116	-1.609270	0.284229	1.258005	-1.485480	3.553058	9.187089	-11.015728	0.000000	0.000000	28.320679	-2.724735	-2.787382	23.692056	-12.549145	82.152777	35.936092	45.189383	-1.863892	-6.115684	16.812477	-7.410932	55.442858	38.414358	56.230678	-1.422234	2.320657
2.180000	10.482429	-0.956170	95.823474	0.412450	0.690739	0.759996	7.670757	4.694966	-2.282841	0.153679	0.002682	14.530614	-11.453300	0.000000	9.218508	-4.617111	-0.387293	1.079377	0.018839	29.155481	14.770233	0.000000	0.532007	0.758872	-1.888780	0.987989	1.009299	-2.006829	0.874034	1.845121	-2.006829	0.608030	1.845121	-1.652682	0.494021	1.547491	-1.534634	0.303989	1.175492	-1.416585	3.800070	8.584509	-10.504828	0.000000	0.000000	28.336564	-2.561229	-3.534365	23.352451	-11.686308	85.632218	35.818601	39.426256	0.632803	-6.045456	15.971620	-6.811227	56.611955	38.571835	54.485796	-0.080028	3.110013
2.200000	10.216581	-1.069477	95.843541	0.413798	0.690453	0.759108	7.581996	4.433987	-2.477124	0.083542	0.001458	15.472009	-10.034122	0.000000	9.282599	-4.392873	-0.276467	1.023194	0.017858	29.599255	14.852955	0.000000	0.564002	0.706210	-1.777489	1.047407	0.939259	-1.888582	0.926598	1.717079	-1.888582	0.644597	1.717079	-1.555303	0.523732	1.440103	-1.444210	0.322271	1.093919	-1.333117	4.028607	7.988787	-9.885862	0.000000	0.000000	28.349756	-2.565498	-4.561488	22.822687	-10.971887	88.861536	35.715090	34.137340	2.843572	-5.822641	15.141748	-6.306637	57.936031	38.603638	53.737174	0.809843	3.646906
2.220000	9.970080	-1.201008	95.864400	0.415167	0.690094	0.758380	7.552055	4.188006	-2.798150	0.070183	0.001225	16.422435	-8.514735	0.000000	9.384210	-4.187701	-0.152249	0.969483	0.016921	29.959570	14.960917	0.000000	0.595091	0.656603	-1.666187	1.105143	0.873282	-1.770324	0.977674	1.596464	-1.770324	0.680129	1.596464	-1.457914	0.552601	1.338945	-1.353777	0.340035	1.017078	-1.249640	4.250672	7.427623	-9.266834	0.000000	0.000000	28.361712	-2.612793	-5.640069	22.246823	-10.407519	92.028263	35.635616	29.554169	4.657707	-5.538329	14.251045	-5.947589	59.085792	38.618738	54.065944	1.276174	3.957436
2.240000	9.732313	-1.333703	95.877886	0.416555	0.689697	0.757845	7.551350	3.952174	-3.206605	0.082435	0.001439	17.393126	-6.915181	0.000000	9.500522	-3.993562	-0.017862	0.920184	0.016060	30.206184	15.060966	0.000000	0.621249	0.607187	-1.545889	1.153721	0.807559	-1.642507	1.020650	1.476315	-1.642507	0.710025	1.476315	-1.352653	0.576892	1.238176	-1.256035	0.354982	0.940533	-1.159417	4.437518	6.868624	-8.597771	0.000000	0.000000	28.373613	-2.771454	-7.000356	21.643224	-10.003615	94.874805	35.639861	25.764919	6.030261	-5.174111	13.451823	-5.732571	60.271769	38.584180	55.366010	1.526028	3.984423
2.260000	9.530907	-1.507797	95.897182	0.417891	0.689195	0.757481	7.619318	3.747317	-3.717413	0.100515	0.001754	18.336114	-5.278307	0.000000	9.677092	-3.830421	0.127359	0.877876	0.015322	30.304625	15.140213	0.000000	0.649747	0.562209	-1.421105	1.206644	0.747738	-1.509924	1.067469	1.366955	-1.509924	0.742595	1.366955	-1.243467	0.603355	1.146457	-1.154648	0.371265	0.870862	-1.065829	4.641075	6.359823	-7.903760	0.000000	0.000000	28.386861	-3.069046	-8.594903	21.022219	-9.789011	97.201650	35.792268	22.998135	6.921501	-4.720787	12.782908	-5.653775	61.529519	38.553749	57.654514	1.512917	3.758123
2.280000	9.340669	-1.710909	95.896108	0.419188	0.688653	0.757202	7.728460	3.553274	-4.233534	0.113268	0.001977	19.265072	-3.649142	0.000000	9.880055	-3.676124	0.251058	0.838099	0.014628	30.283792	15.160414	0.000000	0.680592	0.520705	-1.302509	1.263927	0.692538	-1.383916	1.118144	1.266043	-1.383916	0.777848	1.266043	-1.139696	0.631997	1.061822	-1.058289	0.388890	0.806573	-0.976882	4.861399	5.890323	-7.244165	0.000000	0.000000	28.401554	-3.353921	-10.114403	20.482296	-9.670949	99.115768	35.993157	21.326779	7.433305	-4.213880	12.161895	-5.711533	62.443082	38.493260	61.535356	1.417404	3.307180
2.300000	9.166783	-1.951098	95.888578	0.420421	0.688065	0.757004	7.887535	3.372971	-4.745502	0.120767	0.002108	20.146926	-2.083986	0.000000	10.118336	-3.532955	0.302624	0.798493	0.013936	30.155030	15.185708	0.000000	0.712870	0.482334	-1.168192	1.323870	0.641504	-1.241204	1.171174	1.172746	-1.241204	0.814739	1.172746	-1.022168	0.661971	0.983575	-0.949156	0.407334	0.747135	-0.876144	5.091958	5.456256	-6.497133	0.000000	0.000000	28.417097	-3.800106	-11.802172	19.821092	-9.685596	99.878466	36.273694	20.934580	7.720349	-3.528878	11.799637	-5.848626	63.687824	38.400582	65.912707	1.236181	2.630853
